Coordinates
version=1
nRows=6
nColumns=36
inDegrees=yes

Units are S.I. units (second, meters, Newtons, ...)
If the header above contains a line with 'inDegrees', this indicates whether rotational values are in degrees (yes) or radians (no).

endheader
time	pelvis_tilt	pelvis_list	pelvis_rotation	pelvis_tx	pelvis_ty	pelvis_tz	hip_flexion_r	hip_adduction_r	hip_rotation_r	knee_angle_r	knee_angle_r_beta	ankle_angle_r	subtalar_angle_r	mtp_angle_r	hip_flexion_l	hip_adduction_l	hip_rotation_l	knee_angle_l	knee_angle_l_beta	ankle_angle_l	subtalar_angle_l	mtp_angle_l	lumbar_extension	lumbar_bending	lumbar_rotation	arm_flex_r	arm_add_r	arm_rot_r	elbow_flex_r	pro_sup_r	arm_flex_l	arm_add_l	arm_rot_l	elbow_flex_l	pro_sup_l
      5.00000000	     -2.17588533	     -1.43894438	     -0.42428248	      0.39141530	      0.94982273	     -0.12446411	     16.07957075	     -4.50997267	     -9.03327691	     24.39622408	      0.42579444	     11.95354960	    -22.59911299	     -7.49999987	     12.84385356	     -2.45134546	      8.09133982	     20.05746951	      0.35006888	      9.84993294	    -22.40835335	     -7.49999987	    -12.81630923	      3.31636265	     -4.40335604	     14.67243065	    -13.37755980	     42.12058884	     22.25809482	     54.58795725	     19.35734876	    -15.82412953	     62.51061597	     32.01839133	     48.70735779
      5.00416670	     -2.40723843	     -1.47542039	     -0.44273717	      0.38777585	      0.95548712	     -0.12654576	     16.06912126	     -4.38526299	     -9.00910533	     23.74247688	      0.41438439	     11.99706020	    -22.59321443	     -7.49999987	     12.82918559	     -2.53095179	      7.96279820	     19.43242790	      0.33915985	      9.84609324	    -22.35292598	     -7.49999987	    -12.47345751	      3.32208155	     -4.34559616	     14.77692945	    -13.33634484	     42.10593377	     22.42447517	     54.60223055	     19.45509877	    -15.92347521	     62.50523837	     32.13527703	     48.66506223
      5.00833330	     -2.07181101	     -1.46913165	     -0.38605910	      0.38745516	      0.96263048	     -0.12588308	     15.11960514	     -4.18669739	     -8.94394436	     22.51788329	      0.39301120	     11.23596357	    -22.64308008	     -7.49999987	     11.96439881	     -2.59139953	      7.87379975	     18.41167968	      0.32134443	      9.25178872	    -22.35574437	     -7.49999987	    -12.78762256	      3.21010821	     -4.32673458	     14.90540687	    -13.24950157	     41.98014834	     22.86323913	     54.66423349	     19.63199320	    -16.15896263	     62.48674385	     32.50740905	     48.42159276
      5.01250000	     -1.99552311	     -1.45438453	     -0.38897149	      0.38547806	      0.96175474	     -0.12491486	     14.73155338	     -4.05300999	     -8.91768223	     21.70284446	      0.37878609	     10.65801108	    -23.09121111	     -7.49999987	     11.53728112	     -2.66632349	      7.65850124	     17.59983668	      0.30717510	      8.93456022	    -22.49436623	     -7.49999987	    -12.88880916	      3.14267308	     -4.24736161	     15.02897691	    -13.16648499	     41.05181980	     23.41492820	     55.27549372	     19.75917996	    -16.37816597	     61.70625660	     33.00137332	     49.16105687
      5.01666670	     -2.06786050	     -1.52076506	     -0.35066471	      0.38611117	      0.96152862	     -0.12232988	     14.44434770	     -3.74936843	     -8.67396946	     20.91151394	      0.36497477	     10.51971303	    -22.95654809	     -7.49999987	     11.29271178	     -2.82639495	      7.72091223	     16.86866810	      0.29441380	      8.89227514	    -22.32520948	     -7.49999987	    -12.70996453	      3.10316836	     -4.18687320	     15.01981630	    -13.03004921	     40.87520915	     23.60239523	     55.41737299	     19.80156655	    -16.57091235	     61.58762989	     33.15830915	     49.25912576
      5.02083330	     -1.87112875	     -1.54338446	     -0.31727832	      0.38244944	      0.96354113	     -0.12464859	     13.88080678	     -3.60199762	     -8.57885778	     20.11821379	      0.35112907	     10.09997391	    -23.10581406	     -7.49999987	     10.82720265	     -2.87669478	      7.52702319	     16.17258687	      0.28226489	      8.65978743	    -22.17558573	     -7.49999987	    -13.03671681	      3.10258054	     -4.12920842	     15.30316302	    -13.10048057	     40.81398260	     24.17499324	     55.60981914	     20.20193557	    -16.80393062	     61.81876913	     33.66990788	     48.83937532
